<?xml version="1.0" ?><svg data-name="Layer 1" id="Layer_1" viewBox="0 0 512 512" xmlns="http://www.w3.org/2000/svg"><title/><path d="M159.89,191.38a63.08,63.08,0,0,0,63-63V97.8a63,63,0,0,0-126,0v30.58A63.08,63.08,0,0,0,159.89,191.38ZM108.8,97.8A51.09,51.09,0,0,1,211,97.8v30.58a51.09,51.09,0,0,1-102.17,0Z"/><path d="M326.22,191.38a63.08,63.08,0,0,0,63-63V97.8a63,63,0,1,0-126,0v30.58A63.06,63.06,0,0,0,326.22,191.38ZM275.15,97.8a51.08,51.08,0,1,1,102.15,0v30.58a51.08,51.08,0,1,1-102.15,0Z"/><path d="M444.43,220.34a33.91,33.91,0,0,0-46.55-1.17,67.23,67.23,0,0,0-38.24-12.27H274.76a55.38,55.38,0,0,0-31.42,10.24,55.16,55.16,0,0,0-32-10.24H126.48a68.91,68.91,0,0,0-68.83,68.82V471.24a6,6,0,1,0,11.92,0V275.72a57,57,0,0,1,56.91-56.9h84.87A43.34,43.34,0,0,1,241,230.56l29,29c.11.11.28.07.4.17l47.52,47.52a6.16,6.16,0,0,0,8.44,0l78.5-78.53A22,22,0,0,1,436,259.88l-98.22,98.23a19.49,19.49,0,0,1-27.52,0L247.45,295.3a5.79,5.79,0,0,0-1.72-.91A6.26,6.26,0,0,0,245,294a5.54,5.54,0,0,0-1.21-.25,6.51,6.51,0,0,0-.88-.17,6,6,0,0,0-6,6V471.24a6,6,0,0,0,6,6c.07,0,.12,0,.18,0s.12,0,.18,0a6,6,0,0,0,6-6V313.91l52.64,52.63a31.45,31.45,0,0,0,44.38,0l70.32-70.32v175a6,6,0,1,0,11.92,0V284.3l16-16A34,34,0,0,0,444.43,220.34Zm-122.28,74.3L252.71,225.2a42.94,42.94,0,0,1,22-6.38h84.88a55.47,55.47,0,0,1,29.57,8.75Z"/></svg>